PathFileType	4	(X/Y/Z)	/Users/niels/Desktop/University/Third Semester/Perception and Action/Exam/Gymnastics Motion Tracking/Code for Gym Tracking/Analyzed Data/Webcam_Backflip/id4_3_trajectory_Sports2D/id4_3_trajectory_Sports2D_px_person00.trc
DataRate	CameraRate	NumFrames	NumMarkers	Units	OrigDataRate	OrigDataStartFrame	OrigNumFrames
29.714285714285715	29.714285714285715	8	22	m	29.714285714285715	39	105
Frame#	Time	Hip			RHip			RKnee			RAnkle			RBigToe			RSmallToe			RHeel			LHip			LKnee			LAnkle			LBigToe			LSmallToe			LHeel			Neck			Head			Nose			RShoulder			RElbow			RWrist			LShoulder			LElbow			LWrist		
		X1	Y1	Z1	X2	Y2	Z2	X3	Y3	Z3	X4	Y4	Z4	X5	Y5	Z5	X6	Y6	Z6	X7	Y7	Z7	X8	Y8	Z8	X9	Y9	Z9	X10	Y10	Z10	X11	Y11	Z11	X12	Y12	Z12	X13	Y13	Z13	X14	Y14	Z14	X15	Y15	Z15	X16	Y16	Z16	X17	Y17	Z17	X18	Y18	Z18	X19	Y19	Z19	X20	Y20	Z20	X21	Y21	Z21	X22	Y22	Z22
39	1.3125	0.9088442546765215	-0.6276667537290237	0.0	0.9110680047374307	-0.6300825347595518	0.0	0.9591118431780193	-0.7427651525588373	0.0	0.9346119232700942	-0.8722169565210852	0.0	0.9603475883146296	-0.9045588668989144	0.0	0.9542084914606787	-0.9105476907697119	0.0	0.925065430481053	-0.8900394066362824	0.0	0.9087023456902488	-0.6257835192007591	0.0	0.9496373978940801	-0.7433029877757965	0.0	0.9324521911437278	-0.8683392996995287	0.0	0.9646523322821362	-0.8971073725604963	0.0	0.9533990336667558	-0.896757882748894	0.0	0.9191240231734901	-0.8805517887032802	0.0	0.8546578022309836	-0.47868933335258557	0.0	0.8322327289984448	-0.38691008444058755	0.0	0.8613540902743948	-0.42116673524123394	0.0	0.8510214536928087	-0.48081088513623044	0.0	0.8883883951227475	-0.40446980007682237	0.0	0.8992296444766872	-0.3245200147434851	0.0	0.8528595326550777	-0.48039220423411777	0.0	0.8877449162519317	-0.40756281324258875	0.0	0.8968773290011596	-0.3301781749996715	0.0
40	1.346153846153846	0.900749989682929	-0.5888357640611488	0.0	0.9027404429860305	-0.5918225140972112	0.0	0.9679320593364386	-0.6888202880451755	0.0	0.9443454237641375	-0.8233591037979998	0.0	0.972016980703721	-0.8592283373872911	0.0	0.9654456173538425	-0.8648517859187682	0.0	0.9344982701026946	-0.8417856759602423	0.0	0.9015848522742722	-0.5868972021790949	0.0	0.959182258460028	-0.6898706218341292	0.0	0.9438621351261571	-0.8194261177785778	0.0	0.9769559750072074	-0.8520216626785805	0.0	0.9678227978707928	-0.8521502445299409	0.0	0.9308047068310948	-0.8332041380738109	0.0	0.838282766944265	-0.4455970743304856	0.0	0.8137964950400471	-0.3533152767865871	0.0	0.8435775071258036	-0.3864108298715569	0.0	0.8340289183346061	-0.4465916709000909	0.0	0.8623285061240228	-0.36615362868676543	0.0	0.8662559639610768	-0.28561237786962645	0.0	0.8358686788272327	-0.446639532921025	0.0	0.8621363101101546	-0.3692722481504011	0.0	0.8642695601836902	-0.2915329427853958	0.0
41	1.3798076923076923	0.8909068272056775	-0.551771968109139	0.0	0.8923685515499254	-0.5549871463753866	0.0	0.9775493794628122	-0.62653187818285	0.0	0.9577315413051387	-0.7625164108372247	0.0	0.9909207745818736	-0.7989915585131413	0.0	0.983294325102384	-0.8044848920686913	0.0	0.9477655469767303	-0.7814906650552734	0.0	0.8923887529488019	-0.5493485708787312	0.0	0.9699667967331127	-0.6272010927971337	0.0	0.9589924246241553	-0.7583814487946643	0.0	0.9954448998350857	-0.7930020977400528	0.0	0.9880920210002143	-0.7933886247863228	0.0	0.9459260649900205	-0.7740760580455754	0.0	0.8213586188996055	-0.4125520274810639	0.0	0.7981699118393805	-0.3211548737006759	0.0	0.8288385072804072	-0.3538505866379435	0.0	0.8173646326119919	-0.4132402057026203	0.0	0.8409869291161093	-0.3347086639986363	0.0	0.8424984866473808	-0.2556795852487238	0.0	0.8188646318229642	-0.4134280458534902	0.0	0.8409379545245583	-0.33722287158234693	0.0	0.8408176092557128	-0.26144907864370864	0.0
42	1.4134615384615383	0.8810188148526928	-0.5191355181860718	0.0	0.8817332697022732	-0.5225324675438482	0.0	0.9832278436686832	-0.5594745161402064	0.0	0.9732958725794776	-0.6917934140454465	0.0	1.014353217193826	-0.7236639038460042	0.0	1.005555845457035	-0.7297495461219651	0.0	0.9643376974472789	-0.7114580331929647	0.0	0.8826032862217238	-0.515935253267563	0.0	0.977126367902263	-0.5587937091982942	0.0	0.9758948274347459	-0.6867380907004851	0.0	1.017165380279186	-0.7191138530224885	0.0	1.0109995452339446	-0.7196506547590786	0.0	0.9633047619551902	-0.7045447890155437	0.0	0.8045203261815245	-0.3824470302620855	0.0	0.7849201787853374	-0.2933550174136514	0.0	0.8165536259841119	-0.32612344361963125	0.0	0.8017637532134009	-0.383596737275296	0.0	0.8260574410131772	-0.31197299880396917	0.0	0.8293419012730535	-0.23540101449893797	0.0	0.8023403553673523	-0.3837226402221269	0.0	0.825727746050788	-0.3133210338545536	0.0	0.8278714292861676	-0.24065297975870006	0.0
43	1.4471153846153846	0.8727622625183751	-0.491638173641775	0.0	0.8728689334559825	-0.49524875052385403	0.0	0.9808267718288554	-0.4915784685127581	0.0	0.9886129323304417	-0.6141175835380173	0.0	1.0371787426784713	-0.6351395375375312	0.0	1.0278204439466507	-0.6427409008927526	0.0	0.9825786391240355	-0.6345164690503079	0.0	0.8738463686450811	-0.4873560155058272	0.0	0.9763202634161878	-0.4890449404047998	0.0	0.9914974121690525	-0.6072359744626855	0.0	1.0372566171967679	-0.6315528848548325	0.0	1.0318172745996992	-0.6322427464714195	0.0	0.9811642119666508	-0.6270317699898632	0.0	0.788528803896593	-0.3575180250606881	0.0	0.7727727448936004	-0.27176123271869335	0.0	0.8056882578319049	-0.30459542655304184	0.0	0.7877478001319772	-0.3598224650026919	0.0	0.8178898471093601	-0.2984233828908142	0.0	0.8259119491969128	-0.22433417886902035	0.0	0.7868872655278344	-0.35980001799485056	0.0	0.8168905437610613	-0.2983276607718128	0.0	0.8244874786606036	-0.22879853656980997	0.0
44	1.4807692307692306	0.8674942667561387	-0.4683351920148697	0.0	0.8675447784022804	-0.47203419364317906	0.0	0.9683015102095865	-0.42695734388541473	0.0	1.000355624696367	-0.5328286895168192	0.0	1.0527032847462192	-0.5377122772373577	0.0	1.0441553072741938	-0.5473703124046062	0.0	0.9992775327433643	-0.5534701977674151	0.0	0.8675885002010584	-0.462709302477096	0.0	0.9651858408406497	-0.42280421229573256	0.0	1.0021216686067893	-0.5236232754767994	0.0	1.0499611622996186	-0.5342787515805716	0.0	1.0452066340061257	-0.535095178773053	0.0	0.9966833385677264	-0.5446668124270537	0.0	0.7740944609930444	-0.3392145753394419	0.0	0.7601695729540666	-0.2573126335119017	0.0	0.795172965007027	-0.28958393824732165	0.0	0.7755888961036697	-0.34313881745382613	0.0	0.8153685026536447	-0.2929399752441552	0.0	0.8292602808794182	-0.2207397726885006	0.0	0.7731457835868363	-0.34296548082858497	0.0	0.8134368942109481	-0.2915698145494738	0.0	0.8275669976057538	-0.22445959150313746	0.0
45	1.5144230769230769	0.8659194910639222	-0.4473899444905719	0.0	0.8666176829578044	-0.4508261624604069	0.0	0.9461744954072224	-0.3695051858390724	0.0	1.0044954814046034	-0.45144145869534685	0.0	1.054104891922319	-0.4378623962225292	0.0	1.0482890837928691	-0.4492612749196476	0.0	1.009533141191606	-0.47105156974312623	0.0	0.8647960604869426	-0.4404354366265246	0.0	0.9439351569310477	-0.3645270250672706	0.0	1.0042385543736798	-0.4401842875468088	0.0	1.0499537140918604	-0.43375947347946475	0.0	1.046157206762312	-0.4345203380994431	0.0	1.0057874572925858	-0.4608935219475799	0.0	0.7616730516863893	-0.3282221392037298	0.0	0.7460379933371707	-0.2504946738534119	0.0	0.7840522350734841	-0.28098031382598065	0.0	0.7654609907367437	-0.3337630090130294	0.0	0.8164533569965896	-0.29316885280331356	0.0	0.8353599783382019	-0.22199868407738751	0.0	0.7616666799187853	-0.33365892148084175	0.0	0.8134272875025323	-0.29118104378719173	0.0	0.8329175875404401	-0.2255892872220794	0.0
46	1.548076923076923	0.8677580808276101	-0.42676995076006236	0.0	0.8696124412503766	-0.429411517830027	0.0	0.9169497705845295	-0.32206483028761296	0.0	0.9971533514370656	-0.37357925040570567	0.0	1.036352165400302	-0.3434017493281024	0.0	1.0351723849485175	-0.3554108725775662	0.0	1.0078541306071092	-0.39043783545111144	0.0	0.8655644717703673	-0.4189261005666181	0.0	0.9149817056831423	-0.3173797588631956	0.0	0.9949875938319249	-0.36145559240577424	0.0	1.0331779447165088	-0.33810752555749973	0.0	1.0305972714959855	-0.33851893761361956	0.0	1.0037963037112068	-0.3796596557098111	0.0	0.7515240614995073	-0.324605531596857	0.0	0.7302874056967225	-0.25174034325758765	0.0	0.771736156968502	-0.27871867734289574	0.0	0.7575670338946918	-0.3310518197735739	0.0	0.8190119036136106	-0.29622834443913737	0.0	0.8402382510559542	-0.22546470374732094	0.0	0.7529129580774703	-0.33164558224627155	0.0	0.814750971530252	-0.29470580031430615	0.0	0.8365238782230209	-0.23016217624929317	0.0
